<?xml version="1.0" encoding="UTF-8" standalone="no"?>
<!-- Creator: CorelDRAW 2020 -->

<svg
   xml:space="preserve"
   width="150.2834mm"
   height="150.2834mm"
   version="1.1"
   style="clip-rule:evenodd;fill-rule:evenodd;image-rendering:optimizeQuality;shape-rendering:geometricPrecision;text-rendering:geometricPrecision"
   viewBox="0 0 15028.34 15028.34"
   id="svg13"
   sodipodi:docname="corel.svg"
   inkscape:version="1.4.2 (f4327f4, 2025-05-13)"
   xmlns:inkscape="http://www.inkscape.org/namespaces/inkscape"
   xmlns:sodipodi="http://sodipodi.sourceforge.net/DTD/sodipodi-0.dtd"
   xmlns="http://www.w3.org/2000/svg"
   xmlns:svg="http://www.w3.org/2000/svg"><sodipodi:namedview
   id="namedview13"
   pagecolor="#ffffff"
   bordercolor="#000000"
   borderopacity="0.25"
   inkscape:showpageshadow="2"
   inkscape:pageopacity="0.0"
   inkscape:pagecheckerboard="0"
   inkscape:deskcolor="#d1d1d1"
   inkscape:document-units="mm"
   inkscape:zoom="1.0268353"
   inkscape:cx="283.39501"
   inkscape:cy="283.88194"
   inkscape:window-width="1920"
   inkscape:window-height="1017"
   inkscape:window-x="-8"
   inkscape:window-y="1072"
   inkscape:window-maximized="1"
   inkscape:current-layer="Camada_x0020_1" />
 <defs
   id="defs9">
  <style
   type="text/css"
   id="style1">
   <![CDATA[
    .fil1 {fill:#FEFEFE}
    .fil0 {fill:url(#id1)}
    .fil3 {fill:url(#id2)}
    .fil2 {fill:url(#id3)}
   ]]>
  </style>
     <clipPath
   id="id0">
      <path
   d="m 9860.34,6547.44 h 9264.96 v 9382.13 H 9860.34 Z"
   id="path1" />
     </clipPath>
  <linearGradient
   id="id1"
   gradientUnits="userSpaceOnUse"
   x1="10334.27"
   y1="6041.2798"
   x2="24177.279"
   y2="20011.301">
   <stop
   offset="0"
   style="stop-opacity:1; stop-color:#85E31C"
   id="stop1" />
   <stop
   offset="0.368627"
   style="stop-opacity:1; stop-color:#2CC02B"
   id="stop2" />
   <stop
   offset="1"
   style="stop-opacity:1; stop-color:#298822"
   id="stop3" />
  </linearGradient>
  <linearGradient
   id="id2"
   gradientUnits="userSpaceOnUse"
   x1="14255.58"
   y1="8544.29"
   x2="18869.92"
   y2="13497.29">
   <stop
   offset="0"
   style="stop-opacity:1; stop-color:#C6C6C6"
   id="stop4" />
   <stop
   offset="0.670588"
   style="stop-opacity:1; stop-color:#E2E2E2"
   id="stop5" />
   <stop
   offset="1"
   style="stop-opacity:1; stop-color:#FEFEFE"
   id="stop6" />
  </linearGradient>
  <linearGradient
   id="id3"
   gradientUnits="userSpaceOnUse"
   x1="11877.23"
   y1="6303.79"
   x2="13787.01"
   y2="8199.4404">
   <stop
   offset="0"
   style="stop-opacity:1; stop-color:#C6C6C6"
   id="stop7" />
   <stop
   offset="0.611765"
   style="stop-opacity:1; stop-color:#E2E2E2"
   id="stop8" />
   <stop
   offset="1"
   style="stop-opacity:1; stop-color:#FEFEFE"
   id="stop9" />
  </linearGradient>
 </defs>
 <g
   id="Camada_x0020_1"
   inkscape:label="Camada 1"
   inkscape:groupmode="layer"
   style="display:inline"
   transform="translate(-7335.3,-2992.96)">
  <metadata
   id="CorelCorpID_0Corel-Layer" />
  <g
   id="_883927472"
   style="display:inline">
   <path
   class="fil0"
   d="M 12255.3,2992.96 H 22363.64 V 13101.3 c 0,2706 -2214,4920 -4920,4920 H 12255.3 c -2706,0 -4920,-2214 -4920,-4920 V 7912.96 c 0,-2706 2214,-4920 4920,-4920 z"
   id="path9"
   style="display:inline;fill:url(#id1)" />
   
   <g
   id="g13"
   style="display:inline">
    <path
   class="fil1"
   d="m 18666.18,14755.33 c 84.89,-87.09 243.2,-245.4 341.98,-339.77 98.78,-94.37 138.02,-124.79 173.96,-142.65 35.94,-17.86 68.58,-23.16 93.71,-18.75 25.14,4.41 42.78,18.52 55.12,35.27 12.35,16.76 19.41,36.17 26.02,70.12 6.61,33.96 12.79,82.46 22.49,151.25 9.7,68.8 22.93,157.88 33.07,235.93 10.15,78.06 17.2,145.08 16.32,190.5 -0.88,45.42 -9.7,69.24 -28.22,95.25 -18.52,26.02 -46.75,54.25 -72.77,74.53 -26.01,20.29 -49.82,32.63 -78.04,38.36 -28.22,5.74 -60.86,4.85 -99.67,1.76 -38.8,-3.08 -83.78,-8.37 -126.12,-14.55 -42.33,-6.17 -82.01,-13.22 -122.14,-19.84 -40.13,-6.61 -80.7,-12.79 -127.01,-19.85 -46.3,-7.05 -98.33,-14.98 -134.94,-22.48 -36.6,-7.5 -57.76,-14.55 -72.32,-26.46 -14.55,-11.91 -22.48,-28.66 -27.78,-46.3 -5.29,-17.64 -7.93,-36.16 -4.41,-56.89 3.53,-20.72 13.24,-43.66 23.82,-63.06 10.58,-19.4 22.05,-35.28 106.93,-122.37 z"
   id="path10" />
    <path
   class="fil1"
   d="m 11623.3,6109.16 c 314.42,-288.73 588.79,-323.79 849.57,-123.68 4120.45,4120.45 6193.91,6171.42 6193.91,6171.42 262.27,241.96 418.37,495.08 468.29,759.37 35.57,241.8 67.06,478.16 94.45,709.04 5.45,46.12 -9.31,74.86 -28.43,116.82 -61.42,134.82 -181.34,274.03 -359.72,417.65 -407.47,396.87 -611.2,595.3 -611.2,595.3 -120.3,135.33 -408.97,68.99 -616.3,27.2 -469.05,-94.53 -511.94,-18.64 -897.13,-381.73 -4113.43,-4113.41 -6170.14,-6170.12 -6170.14,-6170.12 -197.24,-176.98 -293.37,-312.81 -288.4,-407.49 -3.71,-48.09 -3.3,-93.14 1.22,-135.1 15.86,-147.28 123.71,-304.82 213.06,-422.11 66.06,-86.69 148.05,-176.79 245.95,-270.25 246.98,-255.76 548.6,-551.2 904.87,-886.32 z"
   id="path11" />
    <path
   class="fil2"
   d="m 11129.63,6597.06 c -16.23,30.51 -16.58,60.19 -12.78,89.14 3.79,28.95 11.72,57.18 23.63,85.4 11.91,28.22 27.78,56.45 49.83,86.88 22.05,30.42 50.28,63.05 154.79,170.21 104.51,107.15 285.31,288.84 440.98,446.27 155.66,157.43 286.19,290.6 435.68,440.54 149.49,149.93 317.95,316.61 412.76,409.22 94.81,92.6 115.97,111.13 126.12,119.95 10.14,8.82 9.25,7.93 189.07,-174.08 179.81,-182.02 540.31,-545.17 720.79,-726.52 180.47,-181.36 180.91,-180.92 180.25,-181.58 -0.67,-0.66 -2.43,-2.43 -229.16,-229.02 -226.74,-226.59 -678.44,-678 -904.07,-903.49 -225.63,-225.49 -225.19,-225.05 -237.37,-234.52 -12.19,-9.48 -37.01,-28.88 -65.92,-47.16 -28.92,-18.29 -61.94,-35.46 -96.49,-49.14 -34.56,-13.68 -70.66,-23.85 -109.42,-29.5 -38.76,-5.66 -80.2,-6.79 -119.19,-3.45 -38.99,3.34 -75.55,11.15 -108.23,20.86 -32.69,9.7 -61.52,21.31 -99.13,41.12 -37.62,19.8 -84.04,47.82 -126.4,77.37 -42.36,29.54 -80.68,60.63 -115.73,91.09 -35.06,30.46 -66.85,60.31 -107.59,98.86 -40.75,38.55 -90.44,85.8 -145.6,138.65 -55.16,52.85 -115.78,111.28 -162.14,156.17 -46.37,44.89 -78.46,76.22 -94.68,106.73 z"
   id="path12"
   style="fill:url(#id3)" />
    <path
   class="fil3"
   d="m 19201.09,13742.13 c -33.38,68.61 -70.32,127.04 -110.82,175.28 -224.71,-13.96 -406.58,-30.51 -545.6,-49.64 -260.25,-12.15 -563.65,-186.78 -910.2,-523.87 l -4357.65,-4370.95 -988.55,999.14 -223.58,-223.57 2084.6,-2087.93 4654.33,4634.15 c 167.9,176.73 278.38,383.91 331.45,621.53 59.81,446.22 89.71,669.33 89.71,669.33 13.31,55.86 5.41,108.04 -23.69,156.53 z"
   id="path13"
   style="fill:url(#id2)" />
   </g>
  </g>
 </g>
</svg>
