<?xml version="1.0" encoding="UTF-8" standalone="no"?>
<svg
   height="533.33344"
   width="518.07507"
   viewBox="-7.4481 -12.7791 27.868208 51.11641"
   version="1.1"
   id="svg1"
   sodipodi:docname="laravel.svg"
   inkscape:version="1.4.2 (f4327f4, 2025-05-13)"
   xmlns:inkscape="http://www.inkscape.org/namespaces/inkscape"
   xmlns:sodipodi="http://sodipodi.sourceforge.net/DTD/sodipodi-0.dtd"
   xmlns="http://www.w3.org/2000/svg"
   xmlns:svg="http://www.w3.org/2000/svg">
  <defs
     id="defs1" />
  <sodipodi:namedview
     id="namedview1"
     pagecolor="#ffffff"
     bordercolor="#000000"
     borderopacity="0.25"
     inkscape:showpageshadow="2"
     inkscape:pageopacity="0.0"
     inkscape:pagecheckerboard="0"
     inkscape:deskcolor="#d1d1d1"
     inkscape:zoom="1.01875"
     inkscape:cx="-81.472393"
     inkscape:cy="290.06135"
     inkscape:window-width="1920"
     inkscape:window-height="1017"
     inkscape:window-x="-8"
     inkscape:window-y="1072"
     inkscape:window-maximized="1"
     inkscape:current-layer="svg1" />
  <path
     fill-rule="evenodd"
     fill="#ff2d20"
     d="m 31.285004,-1.2152288 a 0.809,0.809 0 0 1 0.028,0.209 v 10.972 a 0.8,0.8 0 0 1 -0.402,0.6939998 l -9.209001,5.302 v 10.509 c 0,0.286 -0.152,0.55 -0.4,0.694 l -19.2229985,11.066 c -0.044,0.025 -0.092,0.041 -0.14,0.058 -0.018,0.006 -0.035,0.017 -0.054,0.022 a 0.805,0.805 0 0 1 -0.41,0 c -0.022,-0.006 -0.042,-0.018 -0.063,-0.026 -0.044,-0.016 -0.09,-0.03 -0.132,-0.054 l -19.2190005,-11.066 a 0.801,0.801 0 0 1 -0.402,-0.694 V -6.4452288 c 0,-0.072 0.01,-0.142 0.028,-0.21 0.006,-0.023 0.02,-0.044 0.028,-0.067 0.015,-0.042 0.029,-0.085 0.051,-0.124 0.015,-0.026 0.037,-0.047 0.055,-0.071 0.023,-0.032 0.044,-0.065 0.071,-0.093 0.023,-0.023 0.053,-0.04 0.079,-0.06 0.029,-0.024 0.055,-0.05 0.088,-0.069 h 10e-4 l 9.6100005,-5.5330002 a 0.802,0.802 0 0 1 0.8,0 l 9.61,5.5330002 h 0.002 c 0.032,0.02 0.059,0.045 0.088,0.068 0.026,0.02 0.055,0.038 0.078,0.06 0.028,0.029 0.048,0.062 0.072,0.094 0.017,0.024 0.04,0.045 0.054,0.071 0.023,0.04 0.036,0.082 0.052,0.124 0.008,0.023 0.022,0.044 0.028,0.068 a 0.809,0.809 0 0 1 0.028,0.209 V 14.113771 L 10.490003,9.5027712 v -10.51 c 0,-0.07 0.01,-0.141 0.028,-0.208 0.007,-0.024 0.02,-0.045 0.028,-0.068 0.016,-0.042 0.03,-0.085 0.052,-0.124 0.015,-0.026 0.037,-0.047 0.054,-0.071 0.024,-0.032 0.044,-0.065 0.072,-0.093 0.023,-0.023 0.052,-0.04 0.078,-0.06 0.03,-0.024 0.056,-0.05 0.088,-0.069 h 10e-4 l 9.611,-5.533 a 0.801,0.801 0 0 1 0.8,0 l 9.610001,5.533 c 0.034,0.02 0.06,0.045 0.09,0.068 0.025,0.02 0.054,0.038 0.077,0.06 0.028,0.029 0.048,0.062 0.072,0.094 0.018,0.024 0.04,0.045 0.054,0.071 0.023,0.039 0.036,0.082 0.052,0.124 0.009,0.023 0.022,0.044 0.028,0.068 z m -1.574,10.718 V 0.37877123 l -3.363,1.93599997 -4.646001,2.675 V 14.113771 L 29.712004,9.5027712 Z M 20.101003,26.007771 v -9.13 l -4.57,2.61 -13.0499985,7.448 v 9.216 z M -16.738996,-5.0602288 V 26.007771 l 17.6180005,10.143 v -9.214 l -9.204,-5.209 -0.003,-0.002 -0.004,-0.002 c -0.031,-0.018 -0.057,-0.044 -0.086,-0.066 -0.025,-0.02 -0.054,-0.036 -0.076,-0.058 l -0.002,-0.003 c -0.026,-0.025 -0.044,-0.056 -0.066,-0.084 -0.02,-0.027 -0.044,-0.05 -0.06,-0.078 l -10e-4,-0.003 c -0.018,-0.03 -0.029,-0.066 -0.042,-0.1 -0.013,-0.03 -0.03,-0.058 -0.038,-0.09 v -0.001 c -0.01,-0.038 -0.012,-0.078 -0.016,-0.117 -0.004,-0.03 -0.012,-0.06 -0.012,-0.09 V -0.44922877 l -4.6450005,-2.67600003 -3.363,-1.934 z m 8.8100005,-5.9940002 -8.0070005,4.6090002 8.0050005,4.609 8.006,-4.61 -8.006,-4.6080002 z m 4.164,28.764 4.645,-2.674 V -5.0602288 l -3.363,1.936 -4.646,2.67500003 V 19.646771 Z m 24.6669985,-23.3249998 -8.006,4.609 8.006,4.609 8.005001,-4.61 z m -0.801,10.605 -4.646,-2.675 -3.363,-1.93599997 V 9.5027712 l 4.645,2.6739998 3.364,1.937 z M 1.6790045,25.550771 l 11.7429985,-6.704 5.87,-3.35 -8,-4.606 -9.2109985,5.303 -8.395,4.833 z"
     id="path1"
     style="display:inline" />
</svg>
