<?xml version="1.0" encoding="UTF-8"?>
<svg version="1.1" xmlns="http://www.w3.org/2000/svg" width="1886" height="2000">
<path d="M0 0 C2.3408176 -0.01055217 4.68161506 -0.02680734 7.02235889 -0.04817808 C13.42011966 -0.09025354 19.81519571 -0.05204802 26.21278901 -0.00006288 C32.46467123 0.04424902 38.71645491 0.01364406 44.96838308 -0.00832969 C57.89822177 -0.05160685 70.82731689 -0.03379159 83.75709534 0.01795578 C96.84838235 0.07010367 109.93926349 0.09365134 123.03065491 0.08272171 C124.27377097 0.08171005 124.27377097 0.08171005 125.5420005 0.08067795 C129.76827106 0.077111 133.99454107 0.07308879 138.22081108 0.06891097 C168.76635441 0.03968851 199.31156537 0.07363346 229.85703278 0.14181519 C260.10541901 0.20918722 290.35365645 0.25084392 320.60211945 0.25778198 C321.54256134 0.25801111 322.48300324 0.25824023 323.45194338 0.25847629 C332.04202061 0.26056685 340.63209788 0.26237547 349.22217524 0.26383081 C370.57495265 0.26747325 391.92772739 0.2753541 413.28050232 0.28622437 C414.7389046 0.28696272 414.7389046 0.28696272 416.22676955 0.28771599 C463.49714511 0.31204406 510.76742821 0.38574921 558.03774261 0.4624939 C623.7551967 0.5691531 689.47255024 0.63996611 755.19008636 0.66757202 C757.23560109 0.6684403 759.28111582 0.66930964 761.32663054 0.67018005 C771.52636485 0.67451274 781.7260992 0.67877284 791.92583355 0.68300402 C793.43583274 0.683631 793.43583274 0.683631 794.97633695 0.68427065 C800.05108895 0.68637494 805.12584094 0.68846218 810.20059295 0.69052033 C874.80678085 0.71680536 939.41295067 0.76849086 1004.01911619 0.82751071 C1007.79830919 0.83095996 1011.57750218 0.83440719 1015.35669518 0.83785248 C1016.29060126 0.83870497 1017.22450735 0.83955745 1018.18671363 0.84043577 C1031.43418636 0.85249534 1044.68165959 0.86344758 1057.92913396 0.87353868 C1098.66065759 0.90462166 1139.39213894 0.94422889 1180.12361723 1.01382601 C1183.48421604 1.01953532 1186.84481491 1.02521173 1190.20541382 1.03086472 C1191.44253081 1.03295554 1191.44253081 1.03295554 1192.70464006 1.03508861 C1205.7639401 1.05692337 1218.82322942 1.06891549 1231.88254449 1.07688945 C1244.72322674 1.08496474 1257.56385581 1.10386124 1270.40450495 1.1342921 C1277.27316629 1.15029566 1284.14175489 1.16173088 1291.01043683 1.15952802 C1297.25909923 1.15800336 1303.50757809 1.17023713 1309.7561962 1.19344454 C1312.00240675 1.19939493 1314.24863748 1.20036111 1316.49485111 1.19572003 C1346.93057104 1.14021169 1371.23450681 9.83778236 1393.27993011 31.48300171 C1416.65431949 55.10312843 1422.43771735 84.2569882 1422.3194809 116.3008728 C1422.31891576 118.4605458 1422.31923534 120.62021919 1422.32036591 122.77989197 C1422.32093642 128.6032916 1422.30923123 134.42660774 1422.29521799 140.24998808 C1422.28266005 146.35049223 1422.28153615 152.45099859 1422.27916718 158.55151367 C1422.27296723 170.08604631 1422.25657662 181.62054073 1422.2364682 193.1550566 C1422.21406282 206.29418276 1422.20310412 219.43331082 1422.19307733 232.57245135 C1422.172209 259.5843226 1422.13706207 286.59616001 1422.09243011 313.60800171 C1423.32837827 313.57840425 1424.56432642 313.5488068 1425.83772755 313.51831245 C1430.51657566 313.40668012 1435.19546994 313.29709005 1439.87437916 313.18805122 C1441.88196149 313.14099527 1443.8895317 313.09341864 1445.89708805 313.04526711 C1463.10595863 312.63308523 1480.30499295 312.44887092 1497.51845551 312.47763062 C1501.12213961 312.48343031 1504.72575078 312.47994752 1508.32943249 312.47405815 C1511.2307054 312.47037629 1514.13196204 312.47162358 1517.03323555 312.47418594 C1518.97831651 312.47512825 1520.92339826 312.47222471 1522.86847687 312.46905518 C1535.31192391 312.50075049 1547.62570132 313.10933256 1560.09243011 313.60800171 C1560.09243011 870.64800171 1560.09243011 1427.68800171 1560.09243011 2001.60800171 C1155.61555511 2001.70081421 1155.61555511 2001.70081421 742.96743011 2001.79550171 C657.68418304 2001.82281372 572.40093597 2001.85012573 484.53334808 2001.87826538 C380.74892426 2001.89181519 380.74892426 2001.89181519 332.23186493 2001.89433289 C297.07256473 2001.89723129 261.91328228 2001.90916554 226.75398692 2001.92637807 C189.70229195 2001.94446408 152.65060734 2001.95288993 115.59890787 2001.94868841 C110.43547602 2001.94810567 105.27204417 2001.94762997 100.1086123 2001.94721854 C99.09663799 2001.947134 98.08466367 2001.94704946 97.04202347 2001.94696235 C81.14711746 2001.94590786 65.25223391 2001.95479361 49.35733406 2001.96806103 C33.88802729 2001.98076987 18.41874983 2001.98285864 2.94944031 2001.97350773 C-6.12143904 2001.96834765 -15.19222565 2001.97145224 -24.26309424 2001.98665083 C-30.2983917 2001.99594312 -36.33362299 2001.99434288 -42.36891841 2001.98390427 C-45.79020845 2001.97829182 -49.21117221 2001.97895618 -52.63247149 2001.98970756 C-68.77993214 2002.0372461 -83.56520181 2001.89157105 -98.59506989 1995.29550171 C-99.65661285 1994.84364502 -99.65661285 1994.84364502 -100.73960114 1994.38265991 C-117.05491685 1987.31330777 -117.05491685 1987.31330777 -118.90756989 1983.60800171 C-119.56756989 1983.27800171 -120.22756989 1982.94800171 -120.90756989 1982.60800171 C-123.50329312 1980.39974155 -125.97524805 1978.05408943 -128.47006989 1975.73300171 C-129.16809723 1975.09491577 -129.86612457 1974.45682983 -130.58530426 1973.79940796 C-131.24981598 1973.18194702 -131.9143277 1972.56448608 -132.59897614 1971.92831421 C-133.2094278 1971.36386597 -133.81987946 1970.79941772 -134.44882965 1970.21786499 C-135.90756989 1968.60800171 -135.90756989 1968.60800171 -136.90756989 1965.60800171 C-137.89756989 1965.27800171 -138.88756989 1964.94800171 -139.90756989 1964.60800171 C-140.87241364 1962.88925171 -140.87241364 1962.88925171 -141.90756989 1960.60800171 C-143.69155502 1957.80636224 -145.51804132 1955.03539629 -147.34897614 1952.26425171 C-148.72561554 1949.91809934 -149.28928893 1948.19889334 -149.90756989 1945.60800171 C-150.56756989 1945.27800171 -151.22756989 1944.94800171 -151.90756989 1944.60800171 C-152.97991105 1942.01227895 -153.93781169 1939.44871775 -154.84506989 1936.79550171 C-155.0970816 1936.08973999 -155.34909332 1935.38397827 -155.60874176 1934.65682983 C-159.32630429 1923.97953386 -161.35416349 1914.04263458 -161.33994293 1902.71517944 C-161.35013175 1901.46304437 -161.36032057 1900.21090929 -161.37081814 1898.92083073 C-161.39848289 1895.449812 -161.40771261 1891.97895785 -161.41366816 1888.50784302 C-161.42336897 1884.68265113 -161.44987498 1880.85756447 -161.47382355 1877.03244019 C-161.51872194 1869.39726016 -161.54676019 1861.76210009 -161.56926012 1854.12682474 C-161.58819728 1847.83008005 -161.61400393 1841.53339511 -161.64411163 1835.23669434 C-162.03068823 1753.86281236 -161.99195318 1672.48675611 -161.90756989 1495.60800171 C-164.74294253 1497.16682134 -167.57547032 1498.7307445 -170.40756989 1500.29550171 C-171.19905426 1500.7305603 -171.99053864 1501.1656189 -172.80600739 1501.61386108 C-177.41058245 1504.16147434 -181.89695634 1506.81161069 -186.29624176 1509.70101929 C-187.90756989 1510.60800171 -187.90756989 1510.60800171 -189.90756989 1510.60800171 C-190.23756989 1511.26800171 -190.56756989 1511.92800171 -190.90756989 1512.60800171 C-192.90756989 1513.27466838 -194.90756989 1513.94133504 -196.90756989 1514.60800171 C-197.23756989 1515.26800171 -197.56756989 1515.92800171 -197.90756989 1516.60800171 C-200.55507013 1518.34778758 -203.24959032 1519.77565879 -206.09506989 1521.17050171 C-208.95508381 1522.45030211 -208.95508381 1522.45030211 -210.90756989 1524.60800171 C-212.34793203 1525.43191257 -213.81066293 1526.21686717 -215.28256989 1526.98300171 C-221.11107183 1530.11124975 -226.79405356 1533.46170516 -232.47006989 1536.85800171 C-233.80980865 1537.65536743 -233.80980865 1537.65536743 -235.17661285 1538.46884155 C-236.01724274 1538.97367065 -236.85787262 1539.47849976 -237.72397614 1539.99862671 C-238.48138092 1540.45269897 -239.23878571 1540.90677124 -240.01914215 1541.37460327 C-242.03643247 1542.59996375 -242.03643247 1542.59996375 -243.90756989 1544.60800171 C-245.63955753 1545.59851752 -247.39269611 1546.55234423 -249.15756989 1547.48300171 C-252.36400501 1549.19758301 -255.48331099 1550.90783424 -258.47006989 1552.98300171 C-260.90756989 1554.60800171 -260.90756989 1554.60800171 -262.90756989 1554.60800171 C-263.23756989 1555.26800171 -263.56756989 1555.92800171 -263.90756989 1556.60800171 C-265.68991193 1557.6608137 -267.50859351 1558.65274742 -269.34506989 1559.60800171 C-273.42084558 1561.70469837 -273.42084558 1561.70469837 -276.90756989 1564.60800171 C-278.76284908 1565.72477171 -280.64287563 1566.80050857 -282.53256989 1567.85800171 C-283.78055602 1568.56268648 -285.0278986 1569.26851164 -286.27475739 1569.97518921 C-286.98857574 1570.37963257 -287.7023941 1570.78407593 -288.43784332 1571.20077515 C-293.5270702 1574.10056792 -298.59257202 1577.04116057 -303.65756989 1579.98300171 C-304.72958649 1580.60207397 -305.80160309 1581.22114624 -306.90610504 1581.85897827 C-307.91205719 1582.44389038 -308.91800934 1583.02880249 -309.95444489 1583.63143921 C-310.86033356 1584.15657104 -311.76622223 1584.68170288 -312.69956207 1585.2227478 C-314.99970522 1586.55134022 -314.99970522 1586.55134022 -316.90756989 1588.60800171 C-322.33064681 1591.60800171 -322.33064681 1591.60800171 -325.90756989 1591.60800171 C-325.97904507 1548.56699033 -326.04758038 1505.5259745 -326.11386871 1462.48495483 C-326.11516608 1461.6427386 -326.11646345 1460.80052236 -326.11780014 1459.93278442 C-326.25671215 1369.70308786 -326.37661851 1279.47338978 -326.4580307 1189.24362183 C-326.45984356 1187.23977738 -326.46165643 1185.23593293 -326.46346931 1183.23208848 C-326.50146278 1141.17249738 -326.53678024 1099.11290437 -326.5690057 1057.05330846 C-326.58519605 1035.92593456 -326.60190071 1014.7985611 -326.61909163 993.67118799 C-326.62168185 990.48416842 -326.6242574 987.29714884 -326.62683233 984.11012926 C-326.66662039 935.02426512 -326.71745048 885.93844286 -326.80020905 836.85263062 C-326.80198873 835.7969373 -326.80376841 834.74124398 -326.80560203 833.65355995 C-326.83436349 816.63224632 -326.86405016 799.6109343 -326.89385961 782.58962248 C-326.97968751 733.57350067 -327.05869381 684.55741103 -327.0923872 635.54122162 C-327.09308316 634.53361532 -327.09377911 633.52600902 -327.09449616 632.48786919 C-327.10964976 610.37046793 -327.12128348 588.25306627 -327.12958266 566.13566141 C-327.13298383 557.23686919 -327.13689188 548.33807721 -327.14097404 539.43928528 C-327.1414086 538.4653407 -327.14184315 537.49139613 -327.14229087 536.48793808 C-327.15655328 505.08771151 -327.21210617 473.68772394 -327.2892386 442.28759387 C-327.36672485 410.66668057 -327.40387553 379.04599934 -327.38468173 347.42498866 C-327.38204156 343.05869113 -327.37986563 338.69239349 -327.37796974 334.32609558 C-327.3775813 333.47015126 -327.37719285 332.61420693 -327.37679263 331.7323249 C-327.37183751 318.16009814 -327.41069957 304.58836132 -327.4676981 291.01626817 C-327.52280403 277.6815628 -327.53184946 264.34749455 -327.49138346 251.01272924 C-327.46903884 243.18725096 -327.48255271 235.36378891 -327.54839091 227.53854455 C-327.59324314 221.73897669 -327.57075708 215.94097296 -327.52138957 210.14139614 C-327.5120607 207.8024274 -327.52480224 205.4632469 -327.56162807 203.12454948 C-327.81231209 186.13479856 -327.81231209 186.13479856 -324.63601976 181.92118611 C-321.16456617 178.812401 -317.25000322 177.2459808 -312.90756989 175.60800171 C-311.22631158 174.6452521 -309.56078432 173.65334713 -307.92710114 172.61190796 C-306.72754791 171.89478638 -306.72754791 171.89478638 -305.50376129 171.16317749 C-300.18786387 167.97883796 -294.89247124 164.76048442 -289.59506989 161.54550171 C-288.68389404 160.99266006 -288.68389404 160.99266006 -287.75431061 160.4286499 C-278.75103933 154.96421883 -269.77282424 149.46131066 -260.83213043 143.89486694 C-250.98966923 137.77197037 -241.00886736 131.88438295 -231.03256989 125.98300171 C-220.35878816 119.66483046 -209.70805769 113.30935638 -199.07993317 106.91464233 C-195.75334807 104.91375636 -192.42418063 102.91718155 -189.09506989 100.92050171 C-187.90364936 100.20568176 -186.71224294 99.49083828 -185.52085114 98.77597046 C-179.31642405 95.05331421 -173.11199697 91.33065796 -166.90756989 87.60800171 C-165.98202301 87.02792358 -165.05647614 86.44784546 -164.10288239 85.85018921 C-161.90756989 84.60800171 -161.90756989 84.60800171 -159.90756989 84.60800171 C-159.90756989 83.94800171 -159.90756989 83.28800171 -159.90756989 82.60800171 C-159.42030426 82.33987671 -158.93303864 82.07175171 -158.43100739 81.79550171 C-145.49791875 74.6470309 -132.70929304 67.31058728 -120.29819489 59.27987671 C-119.38650543 58.69000977 -119.38650543 58.69000977 -118.45639801 58.08822632 C-116.76568325 56.99068442 -115.07868315 55.8874263 -113.39194489 54.78378296 C-110.10627998 52.68499337 -106.71134639 50.81596292 -103.29477692 48.9402771 C-99.12829065 46.61500449 -95.05387067 44.13720582 -90.97006989 41.67050171 C-89.29428864 40.66138713 -87.61850739 39.65227254 -85.94272614 38.64315796 C-85.1091861 38.14050415 -84.27564606 37.63785034 -83.41684723 37.1199646 C-80.1169604 35.13162065 -76.81294552 33.15019629 -73.50888824 31.16879272 C-70.75011972 29.51353161 -67.9928217 27.85583955 -65.23569489 26.19784546 C-63.20965842 24.98038888 -61.18361669 23.76294107 -59.15756989 22.54550171 C-58.1946402 21.96606812 -57.23171051 21.38663452 -56.23960114 20.78964233 C-54.15820673 19.53947996 -52.06838155 18.3032686 -49.9712244 17.07973254 C-46.97042669 15.2973262 -44.09858792 13.37873559 -41.2260367 11.39697015 C-27.27957158 2.06940512 -16.56525885 -0.26878794 0 0 Z " fill="#E41050" transform="translate(325.9075698852539,-1.608001708984375)"/>
<path d="M0 0 C2.8901264 0.00264823 5.78022305 -0.00226046 8.67034531 -0.00699043 C11.56732701 -0.01067187 14.46429242 -0.00942528 17.36127472 -0.00686264 C19.30192618 -0.00592076 21.24257844 -0.00882308 23.18322754 -0.01199341 C35.61801134 0.01976266 47.92349957 0.62863188 60.38153076 1.12695312 C60.38153076 558.16695313 60.38153076 1115.20695313 60.38153076 1689.12695312 C-344.09534424 1689.21976563 -344.09534424 1689.21976563 -756.74346924 1689.31445312 C-842.02671631 1689.34176514 -927.30996338 1689.36907715 -1015.17755127 1689.3972168 C-1118.9619751 1689.4107666 -1118.9619751 1689.4107666 -1167.47903442 1689.4132843 C-1202.63833462 1689.41618271 -1237.79761707 1689.42811696 -1272.95691244 1689.44532949 C-1310.0086074 1689.4634155 -1347.06029201 1689.47184134 -1384.11199148 1689.46763983 C-1389.27542333 1689.46705709 -1394.43885519 1689.46658138 -1399.60228705 1689.46616995 C-1400.61426137 1689.46608541 -1401.62623568 1689.46600087 -1402.66887588 1689.46591377 C-1418.5637819 1689.46485928 -1434.45866544 1689.47374503 -1450.35356529 1689.48701245 C-1465.82287206 1689.49972128 -1481.29214952 1689.50181006 -1496.76145904 1689.49245915 C-1505.83233839 1689.48729906 -1514.903125 1689.49040365 -1523.97399359 1689.50560225 C-1530.00929106 1689.51489454 -1536.04452234 1689.5132943 -1542.07981776 1689.50285568 C-1545.50110781 1689.49724324 -1548.92207156 1689.49790759 -1552.34337084 1689.50865897 C-1568.4908315 1689.55619752 -1583.27610116 1689.41052246 -1598.30596924 1682.81445312 C-1599.36751221 1682.36259644 -1599.36751221 1682.36259644 -1600.45050049 1681.90161133 C-1616.76581621 1674.83225919 -1616.76581621 1674.83225919 -1618.61846924 1671.12695312 C-1619.27846924 1670.79695313 -1619.93846924 1670.46695312 -1620.61846924 1670.12695312 C-1623.21419247 1667.91869296 -1625.6861474 1665.57304085 -1628.18096924 1663.25195312 C-1628.87899658 1662.61386719 -1629.57702393 1661.97578125 -1630.29620361 1661.31835938 C-1631.29297119 1660.39216797 -1631.29297119 1660.39216797 -1632.30987549 1659.44726562 C-1632.92032715 1658.88281738 -1633.53077881 1658.31836914 -1634.159729 1657.73681641 C-1635.61846924 1656.12695312 -1635.61846924 1656.12695312 -1636.61846924 1653.12695312 C-1637.60846924 1652.79695313 -1638.59846924 1652.46695312 -1639.61846924 1652.12695312 C-1640.58331299 1650.40820312 -1640.58331299 1650.40820312 -1641.61846924 1648.12695312 C-1643.40245437 1645.32531366 -1645.22894067 1642.55434771 -1647.05987549 1639.78320312 C-1648.43651489 1637.43705076 -1649.00018828 1635.71784476 -1649.61846924 1633.12695312 C-1650.27846924 1632.79695313 -1650.93846924 1632.46695312 -1651.61846924 1632.12695312 C-1652.6908104 1629.53123037 -1653.64871104 1626.96766916 -1654.55596924 1624.31445312 C-1654.80798096 1623.60869141 -1655.05999268 1622.90292969 -1655.31964111 1622.17578125 C-1659.02971948 1611.51998072 -1661.06543046 1601.5858945 -1661.06671143 1590.28173828 C-1661.07844706 1589.03432861 -1661.09018269 1587.78691895 -1661.10227394 1586.50170898 C-1661.13408835 1583.04285567 -1661.147349 1579.5841485 -1661.15723372 1576.12517214 C-1661.16834066 1573.09984621 -1661.19050774 1570.07463824 -1661.21264493 1567.04937589 C-1661.28723091 1556.84990696 -1661.32651131 1546.65042034 -1661.3594656 1536.45074463 C-1661.37145427 1532.85720763 -1661.38521945 1529.26367831 -1661.39896023 1525.67014766 C-1661.46234057 1508.99133775 -1661.51248762 1492.31251814 -1661.53842163 1475.63360596 C-1661.54008658 1474.56981161 -1661.54175153 1473.50601727 -1661.54346693 1472.40998673 C-1661.5451436 1471.33360877 -1661.54682027 1470.2572308 -1661.54854774 1469.14823532 C-1661.55199455 1466.9357376 -1661.55544498 1464.72323989 -1661.55889893 1462.51074219 C-1661.56061246 1461.398846 -1661.56232599 1460.28694982 -1661.56409144 1459.14135981 C-1661.59274144 1441.30619446 -1661.66041854 1423.47136065 -1661.74408436 1405.63638902 C-1661.87301452 1378.14446476 -1661.95110757 1350.65295925 -1661.96363068 1323.16072273 C-1661.96513263 1320.26362215 -1661.96683611 1317.36652176 -1661.96868896 1314.46942139 C-1661.96912596 1313.75362055 -1661.96956296 1313.03781971 -1661.9700132 1312.30032794 C-1661.9782198 1300.72691096 -1662.03003605 1289.15407763 -1662.09716929 1277.58087005 C-1662.16423063 1265.82821384 -1662.18125948 1254.0762999 -1662.15252674 1242.3234843 C-1662.13815061 1235.87223136 -1662.14544062 1229.42281317 -1662.20851517 1222.9718132 C-1662.26622159 1217.00806652 -1662.26357953 1211.0474614 -1662.21351671 1205.08367419 C-1662.20592624 1202.91491697 -1662.22041567 1200.74594905 -1662.25898695 1198.57752156 C-1662.52365489 1182.70536534 -1662.52365489 1182.70536534 -1659.33128035 1178.38491631 C-1655.87753358 1175.09283757 -1651.94865214 1173.1056723 -1647.61846924 1171.12695312 C-1646.28301534 1170.31506475 -1644.95701162 1169.48698325 -1643.6494751 1168.63085938 C-1642.5551416 1167.99019531 -1641.46080811 1167.34953125 -1640.33331299 1166.68945312 C-1639.71753891 1166.32667267 -1639.10176483 1165.96389221 -1638.46733093 1165.59011841 C-1637.16704111 1164.82459225 -1635.86550442 1164.0611801 -1634.56274414 1163.29986572 C-1631.05564949 1161.25005162 -1627.55838329 1159.18356422 -1624.05987549 1157.11914062 C-1623.35089111 1156.70131317 -1622.64190674 1156.28348572 -1621.91143799 1155.85299683 C-1614.90020207 1151.71571339 -1607.94291495 1147.49193871 -1600.99346924 1143.25195312 C-1592.75876261 1138.23061509 -1584.49821505 1133.26045999 -1576.18096924 1128.37695312 C-1568.23090905 1123.70851154 -1560.3760664 1118.90519605 -1552.55303955 1114.02734375 C-1521.95406669 1095.00291609 -1521.95406669 1095.00291609 -1516.57831588 1094.99965128 C-1515.2990162 1094.99523905 -1515.2990162 1094.99523905 -1513.99387208 1094.99073768 C-1513.04890586 1094.9925873 -1512.10393964 1094.99443693 -1511.13033807 1094.9963426 C-1510.12711213 1094.99437009 -1509.12388618 1094.99239757 -1508.09025945 1094.99036529 C-1504.68274162 1094.98490917 -1501.27526384 1094.98665464 -1497.86774254 1094.98828793 C-1495.40788938 1094.98584312 -1492.94803663 1094.98296005 -1490.48818445 1094.97967514 C-1485.09938674 1094.97349834 -1479.71060044 1094.97046499 -1474.32180016 1094.97011512 C-1466.25458181 1094.96957155 -1458.18737501 1094.96328841 -1450.12016044 1094.95584999 C-1436.37413803 1094.94334333 -1422.62811655 1094.93558694 -1408.88208961 1094.93037224 C-1394.94398224 1094.92506541 -1381.00587854 1094.91759139 -1367.06777382 1094.907444 C-1365.74930062 1094.90648605 -1365.74930062 1094.90648605 -1364.40419159 1094.90550875 C-1359.92258778 1094.90224253 -1355.440984 1094.89894079 -1350.95938022 1094.89562648 C-1318.48615023 1094.87168418 -1286.01291882 1094.85258199 -1253.5396843 1094.83602715 C-1221.37126881 1094.81961357 -1189.20285558 1094.80114049 -1157.0344429 1094.77989388 C-1156.036177 1094.77923548 -1155.03791109 1094.77857709 -1154.0093947 1094.77789874 C-1144.89204976 1094.7718844 -1135.77470483 1094.7658446 -1126.65735992 1094.75977424 C-1103.99057078 1094.74468292 -1081.32378145 1094.72991106 -1058.65699196 1094.71535587 C-1057.62468709 1094.71469274 -1056.59238222 1094.7140296 -1055.52879539 1094.71334637 C-1005.2878548 1094.68110022 -955.0469122 1094.65253423 -904.80596924 1094.62426758 C-887.36673989 1094.61445384 -869.92751055 1094.60462386 -852.48828125 1094.59472656 C-851.40672889 1094.59411276 -850.32517654 1094.59349897 -849.21084987 1094.59286657 C-798.95708572 1094.56432451 -748.7033233 1094.53316205 -698.44956113 1094.5013435 C-695.16235921 1094.4992626 -691.87515728 1094.49718342 -688.58795536 1094.49510481 C-654.33142 1094.47344247 -620.07488472 1094.45165406 -585.81834948 1094.42981096 C-584.83966756 1094.42918692 -583.86098564 1094.42856289 -582.8526467 1094.42791995 C-581.07190027 1094.42678443 -579.29115385 1094.42564876 -577.51040743 1094.42451288 C-411.54643162 1094.3186763 -245.58245111 1094.22363756 -79.61846924 1094.12695312 C-79.28846924 733.43695312 -78.95846924 372.74695313 -78.61846924 1.12695312 C-26.01545476 -0.04200275 -26.01545476 -0.04200275 0 0 Z " fill="#770829" transform="translate(1825.6184692382813,310.873046875)"/>
<path d="M0 0 C0 463.98 0 927.96 0 1406 C-5.28 1408.97 -10.56 1411.94 -16 1415 C-20.37271259 1417.64242946 -24.7273248 1420.29825208 -29.0625 1423 C-42.03867533 1431.05694498 -55.13122218 1438.90409099 -68.27490234 1446.68359375 C-83.56000497 1455.7309921 -98.77623151 1464.88459964 -113.93701172 1474.13867188 C-116.80568239 1475.88191635 -119.68351698 1477.60852517 -122.56640625 1479.328125 C-123.39994629 1479.82828125 -124.23348633 1480.3284375 -125.09228516 1480.84375 C-126.58721223 1481.740146 -128.08527913 1482.63134079 -129.58740234 1483.515625 C-132.52413927 1485.28479622 -134.84920485 1486.84072428 -137.22265625 1489.34765625 C-141.58449497 1493.51318156 -146.78312313 1496.20865086 -152 1499.1875 C-153.62035156 1500.13012695 -153.62035156 1500.13012695 -155.2734375 1501.09179688 C-163.33745031 1505.74602649 -163.33745031 1505.74602649 -166.78515625 1507.06762695 C-169.16436799 1507.78636307 -169.16436799 1507.78636307 -170 1510 C-172 1510.66666667 -174 1511.33333333 -176 1512 C-176.33 1512.66 -176.66 1513.32 -177 1514 C-179.64750025 1515.73978588 -182.34202044 1517.16765708 -185.1875 1518.5625 C-188.04751393 1519.8423004 -188.04751393 1519.8423004 -190 1522 C-191.44036215 1522.82391086 -192.90309304 1523.60886546 -194.375 1524.375 C-200.20350195 1527.50324804 -205.88648368 1530.85370345 -211.5625 1534.25 C-212.90223877 1535.04736572 -212.90223877 1535.04736572 -214.26904297 1535.86083984 C-215.10967285 1536.36566895 -215.95030273 1536.87049805 -216.81640625 1537.390625 C-217.57381104 1537.84469727 -218.33121582 1538.29876953 -219.11157227 1538.76660156 C-221.12886259 1539.99196204 -221.12886259 1539.99196204 -223 1542 C-224.73198765 1542.99051581 -226.48512623 1543.94434252 -228.25 1544.875 C-231.45643513 1546.5895813 -234.5757411 1548.29983253 -237.5625 1550.375 C-240 1552 -240 1552 -242 1552 C-242.33 1552.66 -242.66 1553.32 -243 1554 C-244.78234204 1555.05281199 -246.60102362 1556.04474571 -248.4375 1557 C-252.51327569 1559.09669666 -252.51327569 1559.09669666 -256 1562 C-257.85527919 1563.11677 -259.73530574 1564.19250686 -261.625 1565.25 C-262.87298613 1565.95468477 -264.12032871 1566.66050993 -265.3671875 1567.3671875 C-266.08100586 1567.77163086 -266.79482422 1568.17607422 -267.53027344 1568.59277344 C-272.61950032 1571.49256621 -277.68500214 1574.43315886 -282.75 1577.375 C-283.8220166 1577.99407227 -284.8940332 1578.61314453 -285.99853516 1579.25097656 C-287.0044873 1579.83588867 -288.01043945 1580.42080078 -289.046875 1581.0234375 C-289.95276367 1581.54856934 -290.85865234 1582.07370117 -291.79199219 1582.61474609 C-294.09213533 1583.94333851 -294.09213533 1583.94333851 -296 1586 C-301.42307692 1589 -301.42307692 1589 -305 1589 C-305.07147519 1545.95898862 -305.14001049 1502.91797279 -305.20629883 1459.87695312 C-305.2075962 1459.03473689 -305.20889357 1458.19252065 -305.21023025 1457.32478271 C-305.34914226 1367.09508615 -305.46904862 1276.86538808 -305.55046082 1186.63562012 C-305.55227367 1184.63177567 -305.55408654 1182.62793122 -305.55589943 1180.62408677 C-305.59389289 1138.56449567 -305.62921036 1096.50490266 -305.66143582 1054.44530675 C-305.67762617 1033.31793286 -305.69433083 1012.19055939 -305.71152174 991.06318629 C-305.71411197 987.87616671 -305.71668751 984.68914713 -305.71926244 981.50212755 C-305.7590505 932.41626341 -305.8098806 883.33044115 -305.89263916 834.24462891 C-305.89441884 833.18893559 -305.89619853 832.13324227 -305.89803214 831.04555825 C-305.9267936 814.02424461 -305.95648028 797.00293259 -305.98628973 779.98162077 C-306.07211762 730.96549897 -306.15112393 681.94940932 -306.18481731 632.93321991 C-306.18551327 631.92561361 -306.18620923 630.91800731 -306.18692627 629.87986748 C-306.20207988 607.76246622 -306.21371359 585.64506456 -306.22201278 563.52765971 C-306.22541395 554.62886749 -306.229322 545.7300755 -306.23340416 536.83128357 C-306.23383871 535.85733899 -306.23427327 534.88339442 -306.23472099 533.87993637 C-306.24898339 502.4797098 -306.30453628 471.07972223 -306.38166871 439.67959217 C-306.45915497 408.05867886 -306.49630565 376.43799763 -306.47711184 344.81698695 C-306.47447167 340.45068942 -306.47229575 336.08439178 -306.47039986 331.71809387 C-306.47001141 330.86214955 -306.46962296 330.00620522 -306.46922275 329.12432319 C-306.46426763 315.55209643 -306.50312969 301.98035961 -306.56012821 288.40826646 C-306.61523415 275.07356109 -306.62427957 261.73949285 -306.58381358 248.40472753 C-306.56146896 240.57924925 -306.57498282 232.7557872 -306.64082102 224.93054284 C-306.68567326 219.13097498 -306.6631872 213.33297125 -306.61381968 207.53339443 C-306.60449082 205.19442569 -306.61723236 202.8552452 -306.65405818 200.51654777 C-306.90474221 183.52679686 -306.90474221 183.52679686 -303.72844987 179.3131844 C-300.25699628 176.20439929 -296.34243334 174.63797909 -292 173 C-290.31874169 172.03725039 -288.65321444 171.04534542 -287.01953125 170.00390625 C-285.81997803 169.28678467 -285.81997803 169.28678467 -284.59619141 168.55517578 C-279.28029398 165.37083625 -273.98490136 162.15248271 -268.6875 158.9375 C-267.77632416 158.38465836 -267.77632416 158.38465836 -266.84674072 157.82064819 C-257.84346945 152.35621712 -248.86525435 146.85330895 -239.92456055 141.28686523 C-230.08209935 135.16396866 -220.10129748 129.27638124 -210.125 123.375 C-199.45121828 117.05682875 -188.8004878 110.70135467 -178.17236328 104.30664062 C-174.84577818 102.30575465 -171.51661075 100.30917984 -168.1875 98.3125 C-166.99607947 97.59768005 -165.80467306 96.88283657 -164.61328125 96.16796875 C-158.40885417 92.4453125 -152.20442708 88.72265625 -146 85 C-145.07445312 84.41992188 -144.14890625 83.83984375 -143.1953125 83.2421875 C-141 82 -141 82 -139 82 C-139 81.34 -139 80.68 -139 80 C-138.51273438 79.731875 -138.02546875 79.46375 -137.5234375 79.1875 C-124.59034887 72.03902919 -111.80172315 64.70258557 -99.390625 56.671875 C-98.47893555 56.08200806 -98.47893555 56.08200806 -97.54882812 55.48022461 C-95.85811337 54.38268271 -94.17111327 53.27942459 -92.484375 52.17578125 C-89.19871009 50.07699166 -85.80377651 48.20796121 -82.38720703 46.33227539 C-78.22072076 44.00700278 -74.14630078 41.52920411 -70.0625 39.0625 C-68.38671875 38.05338542 -66.7109375 37.04427083 -65.03515625 36.03515625 C-64.20161621 35.53250244 -63.36807617 35.02984863 -62.50927734 34.51196289 C-59.20939052 32.52361894 -55.90537564 30.54219458 -52.60131836 28.56079102 C-49.84254984 26.9055299 -47.08525182 25.24783784 -44.328125 23.58984375 C-40.10982006 21.05347307 -35.88785787 18.52330964 -31.6640625 15.99609375 C-27.29385281 13.38073455 -22.93582101 10.74666682 -18.5859375 8.09765625 C-16.59910498 6.89819456 -14.61213219 5.69896518 -12.625 4.5 C-11.69848633 3.93015381 -10.77197266 3.36030762 -9.81738281 2.77319336 C-8.96241211 2.26022705 -8.10744141 1.74726074 -7.2265625 1.21875 C-6.47971191 0.76435547 -5.73286133 0.30996094 -4.96337891 -0.15820312 C-3 -1 -3 -1 0 0 Z " fill="#E75883" transform="translate(305,1)"/>
<path d="M0 0 C86.13 0 172.26 0 261 0 C266.75144108 17.25432324 272.00184802 34.59775275 277.0390625 52.06640625 C280.91141801 65.48591636 284.84095159 78.88002026 288.97973633 92.22045898 C291.9286989 101.73124547 294.7873591 111.26792575 297.63793945 120.80859375 C300.11135011 129.07357416 302.63365563 137.32205457 305.1875 145.5625 C307.81640999 154.04700012 310.31603307 162.55631288 312.71386719 171.10864258 C314.63158871 177.87536802 316.76218254 184.56216594 318.9375 191.25 C322.03801902 200.78818727 324.83763006 210.37878998 327.49804688 220.0480957 C329.62903306 227.76321227 331.95835352 235.39228926 334.40625 243.01171875 C337.71272537 253.30668996 340.83440071 263.66106643 344 274 C344.27924316 274.91104492 344.55848633 275.82208984 344.84619141 276.76074219 C348.9631393 290.20188461 353.01634289 303.66240743 357.0625 317.125 C357.45900757 318.44423965 357.45900757 318.44423965 357.86352539 319.79013062 C360.96142822 330.10564738 364.00830905 340.43039814 366.91210938 350.80249023 C369.11083396 358.56693911 371.61649441 366.22937748 374.10595703 373.90454102 C376.31244738 380.74317525 378.33709531 387.60372736 380.20947266 394.5402832 C381.87661848 400.67524032 383.77042207 406.72477754 385.70629883 412.77954102 C388.27476335 420.82196921 390.69341787 428.90602783 393.10351562 436.99707031 C394.13271959 440.44456727 395.1675865 443.89033802 396.203125 447.3359375 C402.95118147 469.78992749 402.95118147 469.78992749 405.5625 478.75 C410.09167229 494.25675859 414.88754216 509.69315621 419.83374023 525.07177734 C422.12180886 532.2391588 424.20686411 539.46720901 426.32150269 546.68710327 C428.34571058 553.58732781 430.3915015 560.4812112 432.4375 567.375 C432.6774469 568.18360474 432.9173938 568.99220947 433.16461182 569.82531738 C436.05516009 579.55818336 438.97944161 589.27562501 442.07836914 598.94458008 C443.79280043 604.30100935 445.39487618 609.68425291 446.96191406 615.08544922 C449.26056834 622.97045268 451.70333505 630.81119036 454.14599609 638.65258789 C455.97362756 644.54830455 457.68543526 650.45713117 459.28515625 656.41845703 C460.3876554 660.399955 461.66134971 664.32145069 462.9375 668.25 C464.79982592 674.05206006 466.53790456 679.8499396 468.0625 685.75 C469.33896222 690.68178583 470.79129778 695.49147922 472.4375 700.3125 C474.24336794 705.60971262 475.85157401 710.91089446 477.3125 716.3125 C479.34194196 723.80123082 481.57402998 731.21538406 483.875 738.625 C486.64756962 747.56500111 489.36845393 756.5173841 492 765.5 C492.30276855 766.52689941 492.60553711 767.55379883 492.91748047 768.61181641 C493.19221191 769.55460449 493.46694336 770.49739258 493.75 771.46875 C493.99234375 772.29826172 494.2346875 773.12777344 494.484375 773.98242188 C495 776 495 776 495 778 C429.66 778 364.32 778 297 778 C292.51153846 762.29038462 292.51153846 762.29038462 290.8515625 756.37109375 C290.48177843 755.05403432 290.11198651 753.73697711 289.7421875 752.41992188 C289.18733386 750.44234797 288.63263512 748.4647308 288.078125 746.48706055 C283.91359793 731.6379187 279.66886972 716.81194219 275.4140625 701.9884491 C274.22190565 697.83405572 273.03113799 693.67926479 271.84057617 689.52441406 C271.23744059 687.42102151 270.63359684 685.3178319 270.02905273 683.21484375 C266.76800473 671.86840024 263.54285327 660.51992968 260.60032654 649.08602905 C259.24396892 643.82843308 257.68358712 638.65678713 256.04296875 633.48046875 C254.43541155 628.11592394 253.04963175 622.69461873 251.66210938 617.26953125 C251.46037109 616.48578125 251.25863281 615.70203125 251.05078125 614.89453125 C250.87200439 614.19175049 250.69322754 613.48896973 250.5090332 612.76489258 C250.03363107 610.91573749 250.03363107 610.91573749 249 609 C171.78 608.67 94.56 608.34 15 608 C14.67 610.64 14.34 613.28 14 616 C13.46725411 618.07614206 12.88326237 620.13977863 12.25 622.1875 C10.47800565 628.16878057 8.97406272 634.17409504 7.5625 640.25 C5.84906566 647.59460604 3.9789223 654.86704765 1.91424561 662.12025452 C0.39006033 667.50732762 -1.01144989 672.91700708 -2.35546875 678.3515625 C-2.57039474 679.21585373 -2.78532074 680.08014496 -3.00675964 680.97062683 C-3.45317112 682.7660644 -3.89905671 684.5616328 -4.34442139 686.35733032 C-5.35807251 690.44340793 -6.37637046 694.52832545 -7.39453125 698.61328125 C-7.59085144 699.40116028 -7.78717163 700.18903931 -7.98944092 701.00079346 C-8.59686579 703.43809426 -9.20459275 705.87531946 -9.8125 708.3125 C-10.02521545 709.16530548 -10.23793091 710.01811096 -10.45709229 710.89675903 C-13.69400014 723.86469824 -17.00017613 736.81296131 -20.36669922 749.74780273 C-22.48015671 757.89540595 -24.47307074 766.05885472 -26.30859375 774.2734375 C-27 777 -27 777 -28 778 C-30.4915272 778.09772312 -32.95530508 778.12995818 -35.44728088 778.12025452 C-36.63075093 778.12153615 -36.63075093 778.12153615 -37.83812946 778.12284368 C-40.50221627 778.12450089 -43.16624118 778.11897321 -45.83032227 778.11352539 C-47.73192341 778.11324354 -49.63352466 778.1134012 -51.53512573 778.1139679 C-56.71466284 778.11425597 -61.89417701 778.10835763 -67.07370877 778.10139394 C-72.48028527 778.09516206 -77.88686224 778.09455673 -83.29344177 778.09336853 C-93.53925291 778.09025472 -103.78505343 778.08204067 -114.03085989 778.07201904 C-125.69208663 778.06085943 -137.35331386 778.05534784 -149.01454461 778.05032361 C-173.0097023 778.0398581 -197.00485056 778.0222577 -221 778 C-220.52177534 772.94515423 -219.94366548 768.11245144 -218.52880859 763.21850586 C-218.23114594 762.17548813 -217.93348328 761.1324704 -217.62680054 760.05784607 C-217.30394073 758.9546553 -216.98108093 757.85146454 -216.6484375 756.71484375 C-216.31131744 755.54151993 -215.97419739 754.36819611 -215.62686157 753.15931702 C-214.54974022 749.41670081 -213.46252458 745.67710486 -212.375 741.9375 C-211.66730674 739.48391481 -210.96026995 737.03014017 -210.25390625 734.57617188 C-206.34444401 721.0118089 -202.39068121 707.46026267 -198.43212891 693.91015625 C-195.42358402 683.60611973 -192.51537006 673.27520672 -189.625 662.9375 C-181.52631646 633.98432849 -181.52631646 633.98432849 -177.1875 619.6875 C-174.14657698 609.65734233 -171.32147928 599.56787475 -168.51049805 589.47143555 C-166.32980364 581.65748809 -164.09025113 573.86320817 -161.80859375 566.078125 C-158.95895844 556.34705212 -156.16858705 546.59987835 -153.40625 536.84375 C-153.20715971 536.14069481 -153.00806942 535.43763962 -152.80294609 534.71327972 C-151.36734238 529.64255063 -149.93348112 524.57132949 -148.5 519.5 C-146.86575615 513.71841772 -145.23075727 507.93705052 -143.59375 502.15625 C-143.39594248 501.45763729 -143.19813496 500.75902458 -142.99433327 500.03924179 C-140.13288525 489.93842185 -137.22435957 479.85209436 -134.27262878 469.7772522 C-132.23566956 462.8232624 -130.24742024 455.85817078 -128.3125 448.875 C-124.55654951 435.36438671 -120.68657395 421.89062305 -116.71060181 408.44332886 C-113.25756697 396.75744728 -109.84663775 385.06533659 -106.63476562 373.31054688 C-100.88778537 352.39153874 -94.92060245 331.53402205 -88.81640625 310.71679688 C-86.11106997 301.45396069 -83.51672451 292.16087599 -80.92184448 282.86669922 C-78.24083555 273.2754242 -75.47075065 263.7177899 -72.47070312 254.22045898 C-70.7043957 248.56254485 -69.15646366 242.86367472 -67.6640625 237.12890625 C-64.97313958 226.79059288 -62.07075422 216.51819131 -59.125 206.25 C-58.86365265 205.33611511 -58.6023053 204.42223022 -58.33303833 203.48065186 C-55.04544525 191.98630998 -51.72958594 180.50407354 -48.14306641 169.09863281 C-46.48316065 163.78299526 -45.09293381 158.43435992 -43.76586914 153.02636719 C-42.55706823 148.2497347 -41.15379531 143.53479514 -39.75 138.8125 C-37.25145842 130.32894005 -34.81114128 121.83185841 -32.4375 113.3125 C-29.57587706 103.04544483 -26.66793198 92.79267106 -23.72949219 82.54736328 C-22.9969328 79.98928942 -22.26749835 77.43034466 -21.5390625 74.87109375 C-18.91427386 65.65385321 -16.25762391 56.4469327 -13.5625 47.25 C-10.76559525 37.7031799 -8.05495418 28.13419671 -5.39672852 18.54785156 C-5.12658936 17.57557617 -4.8564502 16.60330078 -4.578125 15.6015625 C-4.34512695 14.75932129 -4.11212891 13.91708008 -3.87207031 13.04931641 C-2.62449204 8.68698365 -1.30376163 4.34587209 0 0 Z " fill="#FEFEFE" transform="translate(888,317)"/>
<path d="M0 0 C166.15058017 0 166.15058017 0 202.3125 33.875 C218.83333751 51.24305994 226.53333144 73.7639513 230 97 C230.2604007 98.60856117 230.2604007 98.60856117 230.52606201 100.24961853 C231.01837457 104.14540226 231.15485422 107.96249626 231.16113281 111.88110352 C231.16609772 112.63682648 231.17106262 113.39254944 231.17617798 114.1711731 C231.19070585 116.65709373 231.19759146 119.14295022 231.203125 121.62890625 C231.20736607 122.91854436 231.20736607 122.91854436 231.21169281 124.23423576 C231.22665933 128.79833147 231.2359006 133.36239587 231.24023438 137.92651367 C231.24459403 141.6570833 231.25839073 145.38741839 231.28125 149.11791992 C231.59097151 200.6609104 231.59097151 200.6609104 224 218 C223.24894776 220.08295423 222.49902087 222.16631444 221.75 224.25 C211.84253114 249.54248092 193.83907978 269.59603304 168.8737793 280.91430664 C165.60657438 282.33797677 162.31039806 283.68053381 159 285 C158.05640625 285.38929688 157.1128125 285.77859375 156.140625 286.1796875 C108.60267202 304.76270549 43.28114425 295 0 295 C0 197.65 0 100.3 0 0 Z " fill="#FEFDFD" transform="translate(1190,1545)"/>
<path d="M0 0 C32.67 0 65.34 0 99 0 C103.49595262 12.36386969 103.49595262 12.36386969 105.1484375 17.96875 C105.51098633 19.18989502 105.87353516 20.41104004 106.24707031 21.66918945 C106.80539551 23.56544067 106.80539551 23.56544067 107.375 25.5 C108.16716378 28.17120145 108.96212826 30.84156406 109.7578125 33.51171875 C109.95169556 34.16303268 110.14557861 34.81434662 110.34533691 35.48539734 C111.92496418 40.77915726 113.56751296 46.05067012 115.25 51.3125 C117.51323266 58.40136091 119.65072634 65.51941953 121.73046875 72.6640625 C122.82261873 76.41125207 123.94702392 80.14805273 125.07763672 83.88378906 C127.41476028 91.60794362 129.67428138 99.34933114 131.86645508 107.1159668 C135.0887097 118.52685107 138.48669124 129.85411066 142.14013672 141.13427734 C146.32187378 154.04562193 150.1689968 167.0387487 153.85986328 180.09838867 C157.38036124 192.54544026 161.1436015 204.88204928 165.12890625 217.1875 C169.57703556 230.94078147 173.53514648 244.82383503 177.3815918 258.75561523 C179.44420644 266.17217751 181.6720544 273.51878227 184.13476562 280.81274414 C184.36615234 281.51520264 184.59753906 282.21766113 184.8359375 282.94140625 C185.03751465 283.53638916 185.2390918 284.13137207 185.44677734 284.74438477 C186.27037537 288.1023822 186.57114714 291.56917711 187 295 C162.25 295 137.5 295 112 295 C110.02 286.585 110.02 286.585 108 278 C106.92268718 274.66107513 106.92268718 274.66107513 105.78173828 271.34375 C104.10034049 266.30270729 102.82227387 261.1344324 101.46557617 255.99804688 C100.93827847 254.00294545 100.40599626 252.00922325 99.87304688 250.015625 C98.10495504 243.36382343 96.49454038 236.72543172 95 230 C65.63 230 36.26 230 6 230 C4.68 235.61 3.36 241.22 2 247 C1.00413317 251.05614121 0.00245216 255.10967336 -1.015625 259.16015625 C-1.24749512 260.08662964 -1.47936523 261.01310303 -1.71826172 261.96765137 C-2.56086079 265.3329301 -3.40553972 268.69768782 -4.25 272.0625 C-6.1475 279.631875 -8.045 287.20125 -10 295 C-34.09 295 -58.18 295 -83 295 C-81.88370993 284.95338933 -81.88370993 284.95338933 -80.1796875 280.33984375 C-77.78143004 273.50513437 -75.94542017 266.57002101 -74.125 259.5625 C-71.18807866 248.30430154 -68.06725758 237.11033532 -64.84466553 225.93069458 C-63.96522158 222.87933101 -63.08812068 219.82730096 -62.21142578 216.77514648 C-60.63300392 211.28187334 -59.05134121 205.78953998 -57.46826172 200.29760742 C-56.82227753 198.05588266 -56.17677039 195.81402038 -55.53173828 193.57202148 C-52.33891128 182.4746463 -49.13303529 171.38374415 -45.78515625 160.33203125 C-43.31952636 152.18126684 -41.07789424 143.99292432 -38.9375 135.75 C-36.54620412 126.63426833 -34.03697558 117.59012604 -31.140625 108.62109375 C-29.62002982 103.79372482 -28.27908856 98.92443577 -26.94018555 94.04418945 C-25.37264415 88.33087372 -23.7602995 82.63177934 -22.125 76.9375 C-20.15062939 70.05969087 -18.20746841 63.17394772 -16.28833008 56.28051758 C-13.96849934 47.94810228 -11.63192082 39.63400383 -9.03515625 31.3828125 C-6.81503969 24.12763914 -4.78252135 16.81579526 -2.71435547 9.51611328 C-1.81346066 6.34296842 -0.90618253 3.17163884 0 0 Z " fill="#FEFDFD" transform="translate(966,1545)"/>
<path d="M0 0 C1.44742332 -0.0230294 1.44742332 -0.0230294 2.92408752 -0.04652405 C30.90071171 -0.40877131 55.8583047 0.85884772 81.046875 14.30859375 C82.06523438 14.85128906 83.08359375 15.39398437 84.1328125 15.953125 C104.52342441 27.95963144 117.31909975 47.31083273 123.26953125 69.88671875 C125.15201667 78.17343847 126.046875 85.7849704 126.046875 94.30859375 C103.606875 94.30859375 81.166875 94.30859375 58.046875 94.30859375 C57.056875 89.35859375 56.066875 84.40859375 55.046875 79.30859375 C51.33945906 70.49095584 46.72405751 62.88383544 38.046875 58.30859375 C22.66342499 52.87000031 8.53114723 50.88828575 -6.953125 57.30859375 C-17.00339849 62.13216899 -23.51801038 69.08099848 -27.953125 79.30859375 C-29.18275695 83.26790659 -30.14135012 87.24423436 -30.953125 91.30859375 C-31.12672546 92.13076889 -31.30032593 92.95294403 -31.47918701 93.80003357 C-32.13492836 98.65448299 -32.10896421 103.44672585 -32.11425781 108.34008789 C-32.11922272 109.44174286 -32.12418762 110.54339783 -32.12930298 111.67843628 C-32.14388618 115.3168806 -32.15072122 118.95528127 -32.15625 122.59375 C-32.16200583 125.13235983 -32.1677635 127.67096965 -32.17352295 130.20957947 C-32.18268236 134.8535422 -32.18898625 139.49749195 -32.1920197 144.14146143 C-32.19648957 150.94450993 -32.21399325 157.74735643 -32.2430203 164.55034357 C-32.26738607 170.46952475 -32.27497107 176.38865659 -32.27669525 182.30788994 C-32.27970784 184.81192561 -32.28768885 187.31596072 -32.30088043 189.81996346 C-32.6114216 207.81249968 -32.6114216 207.81249968 -28.953125 225.30859375 C-28.64256165 226.23225235 -28.33199829 227.15591095 -28.01202393 228.1075592 C-24.28362846 238.59463444 -18.5482897 246.34589913 -8.6171875 251.52734375 C2.65107572 256.76839641 18.14559225 257.60420587 30.16796875 254.40234375 C40.5703464 250.57956186 47.71924876 245.06459721 53.046875 235.30859375 C56.3209257 227.71186402 57.21734864 220.60385739 58.046875 212.30859375 C80.816875 212.30859375 103.586875 212.30859375 127.046875 212.30859375 C127.046875 221.32219919 127.046875 221.32219919 126.3125 225.0078125 C126.15305908 225.81766602 125.99361816 226.62751953 125.8293457 227.46191406 C125.65363037 228.29819336 125.47791504 229.13447266 125.296875 229.99609375 C125.11278076 230.87749023 124.92868652 231.75888672 124.73901367 232.66699219 C119.73774085 256.0419022 109.11705643 276.31394626 89.1171875 290.3671875 C81.13644515 295.52832773 72.96830249 299.12451525 64.046875 302.30859375 C63.19738281 302.61539062 62.34789062 302.9221875 61.47265625 303.23828125 C53.5736461 305.83999257 45.24702885 307.03441179 37.046875 308.30859375 C35.43317017 308.56987061 35.43317017 308.56987061 33.78686523 308.83642578 C29.89521829 309.32774017 26.07159724 309.4868709 22.15625 309.51171875 C21.04867844 309.52210426 21.04867844 309.52210426 19.91873169 309.53269958 C17.54472503 309.54991247 15.17094115 309.5562879 12.796875 309.55859375 C11.58550873 309.56060287 11.58550873 309.56060287 10.34967041 309.56265259 C-1.65920378 309.55832286 -13.21893519 309.08538676 -24.953125 306.30859375 C-25.91863281 306.08042969 -26.88414062 305.85226562 -27.87890625 305.6171875 C-30.29753361 304.95892966 -32.60691936 304.18891879 -34.953125 303.30859375 C-35.86707031 302.97214844 -36.78101563 302.63570312 -37.72265625 302.2890625 C-49.4585774 297.69005801 -60.33446217 291.47538295 -69.953125 283.30859375 C-70.67757812 282.72851562 -71.40203125 282.1484375 -72.1484375 281.55078125 C-93.86586452 263.46553715 -103.64636149 235.58068078 -106.953125 208.30859375 C-107.59537002 199.91518328 -107.51906069 191.50220667 -107.484375 183.08984375 C-107.48708076 180.7301823 -107.49097209 178.37052196 -107.49597168 176.01086426 C-107.50181581 171.10299907 -107.49346988 166.19542819 -107.47460938 161.28759766 C-107.45182351 155.06186732 -107.46497421 148.83682728 -107.48889923 142.61112213 C-107.50349603 137.74972527 -107.4986883 132.88848652 -107.48838806 128.02708435 C-107.48575892 125.73424697 -107.48885257 123.44139423 -107.49830627 121.14857483 C-107.60818853 87.02831534 -100.54949353 55.21879154 -75.953125 30.30859375 C-56.02807658 11.03415915 -27.53617147 0.41977119 0 0 Z " fill="#FEFDFD" transform="translate(736.953125,1537.69140625)"/>
<path d="M0 0 C1.87394822 3.35510379 2.7784204 6.64818497 3.6875 10.375 C3.85483643 11.05723633 4.02217285 11.73947266 4.19458008 12.44238281 C5.61662368 18.29057618 6.96629475 24.15559657 8.32373047 30.01904297 C8.60877441 31.25025879 8.89381836 32.48147461 9.1875 33.75 C9.48156738 35.02117676 9.77563477 36.29235352 10.07861328 37.60205078 C12.45895677 47.8473412 14.99023238 58.05140183 17.5625 68.25 C20.42082209 79.5831741 23.17741682 90.92817622 25.75976562 102.328125 C27.89573182 111.69577838 30.23435549 121.00901779 32.58615112 130.32409668 C34.91624443 139.56117888 37.14096864 148.81311458 39.20507812 158.11376953 C40.70221091 164.81684132 42.36461244 171.47023138 44.0625 178.125 C46.19293736 186.47747444 48.08096665 194.83624149 49.61938477 203.31884766 C50.47684575 207.91602464 51.68280385 212.2065316 53.21704102 216.62182617 C54.68373949 221.07680275 55.75697381 225.634951 56.875 230.1875 C57.26679443 231.76724609 57.26679443 231.76724609 57.66650391 233.37890625 C59.53013653 240.9468654 61.26950077 248.53807617 62.96435547 256.14526367 C64.83745861 264.46534357 66.91292085 272.73175594 69 281 C71.99847961 292.88257969 74.84372645 304.78878267 77.49609375 316.75390625 C78.46170504 321.05798757 79.49119362 325.3472441 80.51953125 329.63671875 C81 332 81 332 81 335 C28.53 335 -23.94 335 -78 335 C-76.87588217 322.6347039 -76.87588217 322.6347039 -75.328125 316.515625 C-75.16541611 315.86061005 -75.00270721 315.20559509 -74.83506775 314.5307312 C-74.49043283 313.14595091 -74.14232377 311.76203092 -73.79086304 310.37896729 C-72.86602012 306.73856265 -71.96712077 303.09174826 -71.06640625 299.4453125 C-70.88721146 298.72233978 -70.70801666 297.99936707 -70.52339172 297.25448608 C-68.74060563 290.02564496 -67.15048323 282.75925025 -65.63574219 275.46972656 C-64.74572818 271.23273539 -63.76253466 267.05889488 -62.58984375 262.890625 C-60.75268154 256.28609918 -59.32211023 249.5994441 -57.86987305 242.90280151 C-54.92931444 229.36799924 -51.81124867 215.88624458 -48.5 202.4375 C-45.4900177 190.21178141 -42.58852677 177.96851225 -39.8125 165.6875 C-37.36226547 154.8497349 -34.81013021 144.04743953 -32.07299805 133.27783203 C-30.2746923 126.17883804 -28.62802089 119.05461252 -27.03222656 111.90771484 C-25.14592872 103.51709484 -23.10600339 95.16579127 -21.0625 86.8125 C-18.29012582 75.47354133 -15.65122626 64.11532955 -13.15527344 52.71166992 C-11.00696174 42.92891676 -8.67936674 33.19374603 -6.31640625 23.4609375 C-5.02555949 18.13881736 -3.80648241 12.80411157 -2.640625 7.453125 C-1.96361466 4.86067078 -1.04602313 2.46435959 0 0 Z " fill="#E51151" transform="translate(1018,445)"/>
<path d="M0 0 C54.50747283 0 54.50747283 0 68.75 13.125 C84.13193138 29.37658121 83.14937442 52.71632184 83.23828125 73.62890625 C83.24235678 74.45256117 83.2464323 75.27621609 83.25063133 76.12483025 C83.2713329 80.48564256 83.28570179 84.84642492 83.29516602 89.20727539 C83.30400636 92.76506777 83.32485668 96.32246714 83.35668945 99.88012695 C83.85279152 156.61797227 83.85279152 156.61797227 66.1875 175.6875 C48.16051456 192.0681854 22.62970907 189 0 189 C0 126.63 0 64.26 0 0 Z " fill="#770829" transform="translate(1264,1598)"/>
<path d="M0 0 C2 1 2 1 2.60668945 2.78393555 C2.77386475 3.560354 2.94104004 4.33677246 3.11328125 5.13671875 C3.30672119 6.01312012 3.50016113 6.88952148 3.69946289 7.79248047 C3.90176514 8.74783691 4.10406738 9.70319336 4.3125 10.6875 C4.7550426 12.70446345 5.19775574 14.7213895 5.640625 16.73828125 C5.86556641 17.77678223 6.09050781 18.8152832 6.32226562 19.88525391 C7.37457825 24.72149471 8.46741651 29.54829813 9.5625 34.375 C9.7478833 35.20346436 9.9332666 36.03192871 10.12426758 36.88549805 C11.46162048 42.81118614 12.91384627 48.7054559 14.39530945 54.59642029 C17.44808938 66.74225645 20.37308152 78.91992695 23.32267761 91.09114075 C24.51344959 96.00277063 25.71298246 100.91215084 26.91796875 105.8203125 C27.46626052 108.06768036 28.01444618 110.31507411 28.5625 112.5625 C28.81370605 113.57755615 29.06491211 114.5926123 29.32373047 115.63842773 C29.54818848 116.56341064 29.77264648 117.48839355 30.00390625 118.44140625 C30.19799072 119.23232666 30.3920752 120.02324707 30.59204102 120.83813477 C31 123 31 123 31 127 C11.2 127 -8.6 127 -29 127 C-28.35614787 120.56147872 -27.75341985 115.27312807 -26.21484375 109.16015625 C-26.03805084 108.44729965 -25.86125793 107.73444305 -25.67910767 106.99998474 C-25.30047348 105.47533669 -24.91885726 103.95142649 -24.53445435 102.42822266 C-23.50608877 98.35282267 -22.49937426 94.27208313 -21.4921875 90.19140625 C-21.18164177 88.93591476 -21.18164177 88.93591476 -20.86482239 87.65505981 C-18.27674555 77.14177252 -15.91281824 66.57701661 -13.56420898 56.00805664 C-13.25248104 54.61994553 -12.94071551 53.23184285 -12.62890625 51.84375 C-12.2278064 50.03680664 -12.2278064 50.03680664 -11.81860352 48.19335938 C-11.08142488 45.31763717 -10.10472439 42.74665681 -9 40 C-8.5730258 38.20001073 -8.19242742 36.38857525 -7.8515625 34.5703125 C-7.65264404 33.53382568 -7.45372559 32.49733887 -7.2487793 31.42944336 C-7.04293213 30.33897705 -6.83708496 29.24851074 -6.625 28.125 C-4.78519175 18.6233361 -2.70493219 9.29348211 0 0 Z " fill="#790D2D" transform="translate(1015,1594)"/>
<path d="M0 0 C1.55403686 2.93163286 2.69801632 5.83365224 3.6875 9 C3.95949219 9.845625 4.23148438 10.69125 4.51171875 11.5625 C5.02468085 14.1232068 4.84216387 15.55828998 4 18 C2.35 16.68 0.7 15.36 -1 14 C-1.99 14.66 -2.98 15.32 -4 16 C-3.6083965 10.04492601 -2.62875405 5.37180176 0 0 Z " fill="#EC6A92" transform="translate(1018,445)"/>
<path d="" fill="#AB2B50" transform="translate(0,0)"/>
</svg>
